<?xml version="1.0" encoding="utf-8"?>
<!-- Generator: Adobe Illustrator 17.0.0, SVG Export Plug-In . SVG Version: 6.00 Build 0)  -->
<!DOCTYPE svg PUBLIC "-//W3C//DTD SVG 1.1//EN" "http://www.w3.org/Graphics/SVG/1.1/DTD/svg11.dtd">
<svg version="1.1" id="Layer_1" xmlns="http://www.w3.org/2000/svg" xmlns:xlink="http://www.w3.org/1999/xlink" x="0px" y="0px"
	 width="200px" height="216.979px" viewBox="0 0 200 216.979" enable-background="new 0 0 200 216.979" xml:space="preserve">
<g>
	<path fill="#211F1F" d="M175.679,70.323c-8.008-1.633-56.294,12.302-73.662,28.941c-25.203,2.152-66.702,26.503-70.422,33.081
		c-4.852,8.579,7.394,20.349,7.394,20.349s74.027-0.307,97.722-1.27c10.558-11.924,51.251-62.843,51.251-62.843
		S185.974,72.423,175.679,70.323z"/>
	<polygon fill="#404040" points="89.848,78.17 0,138.545 3.482,146.305 124.838,132.347 200,64.564 195.4,56.413 	"/>
	<path fill="#211F1F" d="M85.103,69.58C76.779,76.378,8.083,130.946,0,138.545c10.163,0.214,109.586-13.527,121.245-15.343
		c7.225-6.083,71.029-62.994,74.155-66.79C191.284,55.942,94.738,67.525,85.103,69.58z"/>
	<path fill="#CC202B" d="M108.394,86.94c1.461,2.802-0.685,6.535-4.794,8.339c-4.109,1.804-8.625,0.994-10.086-1.807
		c-1.461-2.802,0.685-6.535,4.794-8.339C102.417,83.329,106.933,84.138,108.394,86.94z"/>
	<path fill="#CC202B" d="M89.584,186.242L89.584,186.242c-2.133,0.936-4.76,0.012-5.838-2.053l-25.451-48.794
		c-1.144-2.194-0.227-4.802,2.039-5.797l0,0c2.133-0.936,4.76-0.012,5.838,2.053l25.451,48.794
		C92.767,182.639,91.85,185.248,89.584,186.242z"/>
	<path fill="#CC202B" d="M92.229,191.662l-0.001,0.001c-2.832,1.243-6.318,0.017-7.749-2.725l0,0
		c-1.519-2.912-0.301-6.374,2.706-7.695l0.001-0.001c2.832-1.243,6.318-0.016,7.749,2.725
		C96.454,186.88,95.236,190.342,92.229,191.662z"/>
	<path fill="#CC202B" d="M62.144,136.067l-2.956-2.389c-1.001-0.809-1.156-2.221-0.345-3.138l38.243-43.21
		c0.811-0.917,2.294-1.005,3.295-0.196l2.956,2.389c1.001,0.809,1.156,2.221,0.345,3.138l-38.243,43.21
		C64.628,136.788,63.145,136.876,62.144,136.067z"/>
	<path fill="#CC202B" d="M104.813,216.096L104.813,216.096c-5.147,2.259-11.485,0.03-14.084-4.953l-4.497-8.621
		c-2.761-5.293-0.547-11.586,4.919-13.985c5.147-2.259,11.484-0.03,14.084,4.953l4.497,8.621
		C112.492,207.405,110.279,213.697,104.813,216.096z"/>
</g>
</svg>
