<?xml version="1.0" encoding="utf-8"?>
<!-- Generator: Adobe Illustrator 17.0.0, SVG Export Plug-In . SVG Version: 6.00 Build 0)  -->
<!DOCTYPE svg PUBLIC "-//W3C//DTD SVG 1.1//EN" "http://www.w3.org/Graphics/SVG/1.1/DTD/svg11.dtd">
<svg version="1.1" id="Layer_1" xmlns="http://www.w3.org/2000/svg" xmlns:xlink="http://www.w3.org/1999/xlink" x="0px" y="0px"
	 width="103.745px" height="150px" viewBox="0 0 103.745 150" enable-background="new 0 0 103.745 150" xml:space="preserve">
<path opacity="0.5" fill="#7C9FA0" d="M100.638,21.299c-1.775-1.482-3.989-2.211-6.195-2.211c-0.061,0-0.122,0-0.184,0.002
	c2.431-3.775,1.46-8.733-2.39-11.437c-1.675-1.176-3.635-1.743-5.58-1.743c-0.152,0-0.304,0.004-0.456,0.011
	c-0.68-1.889-2.055-3.57-4.025-4.677C80.307,0.401,78.655,0,77.024,0c-3.159,0-6.24,1.505-7.985,4.221l-17.52,27.264
	c-0.114,0.178-0.221,0.359-0.321,0.541l-2.12,2.173l-1.724-6.266c-1.081-3.927-4.861-6.535-9.005-6.534
	c-0.768,0-1.548,0.089-2.325,0.277c-4.977,1.198-7.974,5.941-6.693,10.594l5.458,19.834c0.212,0.769,0.527,1.488,0.928,2.146
	c-1.711,3.205-2.414,6.699-2.175,10.12L0,150h52.54l27.83-71.048c1.762-2.574,2.811-5.399,3.184-8.265
	c0.008-0.024,0.015-0.048,0.023-0.072L99.31,52.064c3.193-3.765,2.518-9.237-1.509-12.223c-0.483-0.358-0.991-0.664-1.519-0.918
	l5.099-5.339C104.804,30,104.471,24.5,100.638,21.299z"/>
</svg>
